<svg width="49" height="49" viewBox="0 0 49 49" fill="none" xmlns="http://www.w3.org/2000/svg">
<circle cx="24.5" cy="24.5" r="24.5" fill="#D51A3B"/>
<path d="M27.8044 17.0031L25.8592 17C23.6739 17 22.2616 18.4489 22.2616 20.6915V22.3936H20.3059C20.1369 22.3936 20 22.5306 20 22.6996V25.1656C20 25.3346 20.137 25.4715 20.3059 25.4715H22.2616V31.6941C22.2616 31.8631 22.3985 32 22.5675 32H25.1192C25.2882 32 25.4251 31.863 25.4251 31.6941V25.4715H27.7118C27.8808 25.4715 28.0177 25.3346 28.0177 25.1656L28.0186 22.6996C28.0186 22.6184 27.9863 22.5407 27.9291 22.4833C27.8718 22.4259 27.7938 22.3936 27.7126 22.3936H25.4251V20.9507C25.4251 20.2572 25.5903 19.9052 26.4937 19.9052L27.8041 19.9047C27.9729 19.9047 28.1098 19.7677 28.1098 19.5989V17.309C28.1098 17.1403 27.9731 17.0034 27.8044 17.0031Z" fill="white"/>
</svg>
