<svg width="49" height="49" viewBox="0 0 49 49" fill="none" xmlns="http://www.w3.org/2000/svg">
<circle cx="24.5" cy="24.5" r="24.5" fill="#D51A3B"/>
<path d="M33.4833 18.2876C32.7139 17.3731 31.2934 17 28.5806 17H18.7332C15.9583 17 14.5138 17.3971 13.7473 18.3708C13 19.3202 13 20.719 13 22.655V26.345C13 30.0957 13.8867 32 18.7332 32H28.5807C30.9332 32 32.2368 31.6708 33.0802 30.8637C33.945 30.036 34.314 28.6846 34.314 26.345V22.655C34.314 20.6133 34.2562 19.2063 33.4833 18.2876ZM26.6837 25.0095L22.212 27.3465C22.112 27.3988 22.0027 27.4247 21.8935 27.4247C21.7699 27.4247 21.6466 27.3914 21.5373 27.3253C21.3316 27.2006 21.206 26.9777 21.206 26.7371V22.078C21.206 21.8379 21.3312 21.6152 21.5365 21.4905C21.7419 21.3657 21.9973 21.3572 22.2104 21.4679L26.6821 23.7899C26.9096 23.908 27.0525 24.1429 27.0528 24.3991C27.0531 24.6556 26.9109 24.8908 26.6837 25.0095Z" fill="white"/>
</svg>
