<svg width="127" height="144" viewBox="0 0 127 144" fill="none" xmlns="http://www.w3.org/2000/svg">
<path d="M-7.62939e-06 80.2338C-7.62939e-06 115.248 28.4858 143.734 63.4997 143.734C98.5136 143.734 127 115.248 127 80.2338C127 78.1539 125.314 76.4675 123.234 76.4675C121.154 76.4675 119.467 78.1542 119.467 80.2338C119.467 111.095 94.3605 136.201 63.5 136.201C32.6395 136.201 7.53258 111.094 7.53258 80.2338C7.53258 49.3736 32.6395 24.2667 63.5 24.2667L70.0343 24.2667L60.691 34.7253C59.305 36.2764 59.4395 38.6575 60.9905 40.0435C62.5416 41.4295 64.923 41.2947 66.3087 39.7437L79.6648 24.7933C81.8511 22.3459 81.8511 18.6549 79.6648 16.2075L66.3087 1.25711C65.5645 0.423889 64.5339 0 63.4986 0C62.6056 0 61.7089 0.316101 60.9905 0.957291C59.4392 2.34326 59.305 4.72443 60.691 6.27547L70.0343 16.7341L63.5 16.7341C28.4858 16.7341 -7.62939e-06 45.2202 -7.62939e-06 80.2338Z" fill="#E5E5E5"/>
</svg>
