<svg width="36" height="30" viewBox="0 0 36 30" fill="none" xmlns="http://www.w3.org/2000/svg">
<path d="M33.5959 25.5479H32.5669C32.6989 25.2906 32.774 24.9995 32.774 24.691L32.7733 6.88323C32.7733 5.84467 31.9283 4.99967 30.8897 4.99967H28.1164V4.37227C28.1164 3.87754 27.714 3.47501 27.2192 3.47501H26.369V0.897271C26.369 0.607614 26.2281 0.334395 25.9922 0.166313C25.7562 -0.00170082 25.452 -0.0455366 25.1781 0.0491894L23.5601 0.60871C23.292 0.70145 23.1498 0.993915 23.2425 1.26207C23.3352 1.53015 23.6275 1.67268 23.8958 1.57967L25.3415 1.07974V13.4345L18.0479 15.9567V3.602L21.8244 2.29604C22.0926 2.2033 22.2347 1.91083 22.142 1.64268C22.0493 1.3746 21.7571 1.2322 21.4887 1.32508L17.5342 2.69254L9.89034 0.0491894C9.6165 -0.0456051 9.31226 -0.00170082 9.0763 0.166313C8.84041 0.334395 8.69952 0.607614 8.69952 0.897271V3.47494H7.84931C7.35452 3.47494 6.95205 3.87748 6.95205 4.3722V5.00028H4.17808C3.13945 5.00028 2.29452 5.84528 2.29452 6.88384L2.29459 8.71063C2.29459 8.99439 2.52459 9.22432 2.80829 9.22432C3.09199 9.22432 3.32199 8.99432 3.32199 8.71063L3.32192 6.88391C3.32192 6.41179 3.70596 6.02775 4.17808 6.02775H6.95205V7.05515H4.86301C4.72678 7.05515 4.59609 7.10926 4.49979 7.20563C4.40342 7.30193 4.34931 7.43261 4.34931 7.56884L4.35 24.0068C4.35 24.2906 4.58 24.5205 4.8637 24.5205L30.2055 24.5198C30.3417 24.5198 30.4724 24.4657 30.5688 24.3693C30.6651 24.273 30.7192 24.1423 30.7192 24.0061L30.7185 7.56816C30.7185 7.28439 30.4885 7.05446 30.2048 7.05446H28.1164V6.02706H30.8897C31.3618 6.02706 31.7459 6.4111 31.7459 6.88323L31.7466 24.691C31.7466 25.1632 31.3625 25.5472 30.8904 25.5472L4.17877 25.5479C3.70664 25.5479 3.3226 25.1638 3.3226 24.6917L3.32212 10.9088C3.32212 10.6251 3.09212 10.3951 2.80842 10.3951C2.52472 10.3951 2.29473 10.6251 2.29473 10.9088L2.2952 24.6917C2.2952 24.9999 2.37007 25.2908 2.50192 25.5479H1.4726C0.660616 25.5479 0 26.2085 0 27.0205V28.5273C0 29.3394 0.660616 30 1.4726 30H21.896C22.1797 30 22.4097 29.7701 22.4097 29.4863C22.4097 29.2025 22.1797 28.9726 21.896 28.9726H1.4726C1.22712 28.9726 1.0274 28.7729 1.0274 28.5274V27.0205C1.0274 26.7751 1.22712 26.5753 1.4726 26.5753H14.0753V26.9363C14.0753 27.6437 14.6509 28.2192 15.3583 28.2192H19.7103C20.4177 28.2192 20.9931 27.6438 20.9931 26.9363V26.5753H33.5959C33.8414 26.5753 34.0411 26.7751 34.0411 27.0205V28.5274C34.0411 28.7729 33.8414 28.9726 33.5959 28.9726H24.1387C23.8549 28.9726 23.625 29.2025 23.625 29.4863C23.625 29.7701 23.8549 30 24.1387 30H33.5959C34.4079 30 35.0685 29.3394 35.0685 28.5274V27.0205C35.0685 26.2085 34.4079 25.5479 33.5959 25.5479ZM25.765 14.3751C26.1262 14.2501 26.369 13.9093 26.369 13.5271V4.50241H27.089V16.1642H20.5915L25.765 14.3751ZM9.72691 1.07974L17.0205 3.602V15.9567L9.72691 13.4345V1.07974ZM7.97945 4.50241H8.69952V13.5271C8.69952 13.9093 8.94226 14.2501 9.30363 14.3752L14.477 16.1643H7.97945V4.50241ZM29.6911 8.08186L29.6918 23.4924L5.37733 23.4931L5.37671 8.08254H6.95205V16.2943C6.95205 16.789 7.35452 17.1916 7.84931 17.1916H27.2192C27.714 17.1916 28.1164 16.789 28.1164 16.2943V8.08186H29.6911ZM19.9657 26.9362C19.9657 27.0771 19.8511 27.1918 19.7103 27.1918H15.3583C15.2174 27.1918 15.1027 27.0771 15.1027 26.9362V26.5753H19.9657V26.9362Z" fill="#556832"/>
<path d="M24.2816 18.6566H10.7869C10.5032 18.6566 10.2732 18.8866 10.2732 19.1703C10.2732 19.4541 10.5032 19.684 10.7869 19.684H24.2816C24.5654 19.684 24.7953 19.4541 24.7953 19.1703C24.7953 18.8866 24.5653 18.6566 24.2816 18.6566Z" fill="#556832"/>
<path d="M19.5385 20.8358H10.7869C10.5032 20.8358 10.2732 21.0657 10.2732 21.3495C10.2732 21.6332 10.5032 21.8632 10.7869 21.8632H19.5385C19.8223 21.8632 20.0522 21.6332 20.0522 21.3495C20.0522 21.0657 19.8222 20.8358 19.5385 20.8358Z" fill="#556832"/>
</svg>
