<svg width="42" height="30" viewBox="0 0 42 30" fill="none" xmlns="http://www.w3.org/2000/svg">
<path d="M17.0783 27.8217C10.929 26.1895 6.63426 20.6007 6.63426 14.2309C6.63426 11.7981 7.26511 9.41016 8.45747 7.30685C9.12943 7.111 10.9195 6.46335 11.8204 4.92546C12.9188 3.05013 12.2159 0.667358 12.1854 0.566866C12.0926 0.261067 11.7805 0.0781095 11.4684 0.14679C11.3659 0.169384 8.9437 0.721438 7.84514 2.59677C6.95246 4.12063 7.24945 5.97965 7.40842 6.67673C6.79258 7.75792 6.31329 8.90811 5.97927 10.1007C5.71123 9.59182 5.34679 9.08952 4.84979 8.68355C4.84979 8.68347 4.84979 8.68347 4.84979 8.68347C3.16663 7.30864 0.703925 7.63508 0.599926 7.64984C0.283604 7.69413 0.0545605 7.97448 0.0742185 8.29333C0.0807439 8.39815 0.252037 10.8765 1.93528 12.2515C3.0601 13.1704 4.53298 13.3293 5.41742 13.3293C5.42468 13.3293 5.43162 13.3292 5.4388 13.3292C5.42118 13.629 5.41074 13.9295 5.41074 14.2309C5.41074 15.6171 5.59834 16.9692 5.95129 18.2596C5.52004 17.9951 5.02875 17.7788 4.48428 17.6727C2.35095 17.2567 0.3354 18.7089 0.250569 18.7709C-0.00726818 18.9596 -0.0765196 19.3148 0.0915925 19.5865C0.112148 19.6197 0.603841 20.4069 1.45101 21.1145C1.71039 21.3311 2.09621 21.2965 2.31269 21.0371C2.52934 20.7778 2.49475 20.392 2.23537 20.1755C1.93487 19.9244 1.68723 19.6588 1.50321 19.4387C2.12362 19.1085 3.1991 18.6686 4.25018 18.8736C5.30127 19.0785 6.13286 19.89 6.58352 20.4288C6.0207 20.7283 5.08299 21.1181 4.12881 21.0345C3.79724 21.0062 3.49511 21.2589 3.46607 21.5907C3.43703 21.9228 3.69022 22.2244 4.02228 22.2535C4.147 22.2643 4.27058 22.2695 4.39325 22.2695C5.55315 22.2694 6.60579 21.8126 7.23436 21.4686C7.95811 22.8136 8.87951 24.0434 9.96501 25.1155C9.39004 25.1038 8.7742 25.1795 8.17843 25.4179C6.16051 26.2252 5.25421 28.5382 5.21669 28.6364C5.10233 28.9347 5.23675 29.2707 5.52534 29.4078C5.59402 29.4405 6.79283 29.9995 8.21521 29.9995C8.75764 29.9995 9.3327 29.9182 9.88973 29.6954C11.2483 29.1519 12.1023 27.9265 12.5273 27.1534C13.8133 27.9675 15.2359 28.5987 16.7644 29.0044C17.0953 29.0921 17.4426 28.8816 17.5181 28.5478C17.5897 28.2311 17.3919 27.9049 17.0783 27.8217ZM2.7092 11.304C1.87916 10.6259 1.53013 9.51628 1.38796 8.82858C2.08838 8.8294 3.24078 8.94922 4.07571 9.63121C4.90501 10.3087 5.25413 11.4169 5.39654 12.1048C4.69375 12.1023 3.53826 11.9813 2.7092 11.304ZM8.90088 3.2153C9.44208 2.2913 10.4831 1.77522 11.1407 1.52831C11.2469 2.22303 11.3058 3.38325 10.7646 4.30701C10.2234 5.23102 9.18245 5.7471 8.52485 5.99401C8.41856 5.29929 8.35967 4.13906 8.90088 3.2153ZM9.43523 28.5593C8.4401 28.9574 7.3001 28.7256 6.62961 28.5172C6.96942 27.9046 7.632 26.9543 8.63292 26.5538C9.62814 26.1557 10.7681 26.3874 11.4385 26.5959C11.0988 27.2085 10.4362 28.1589 9.43523 28.5593Z" fill="#556832"/>
<path d="M41.623 18.7714C41.5382 18.7094 39.5224 17.2573 37.3893 17.6732C36.8448 17.7793 36.3536 17.9956 35.9223 18.2601C36.2753 16.9697 36.4629 15.6176 36.4629 14.2314C36.4629 13.9299 36.4524 13.6292 36.4347 13.3294C36.4418 13.3294 36.4487 13.3295 36.4559 13.3295C36.9974 13.3295 37.7595 13.2703 38.5241 13.0148C38.8446 12.9077 39.0175 12.5612 38.9104 12.2407C38.8033 11.9203 38.4568 11.7474 38.1362 11.8544C37.5323 12.0562 36.916 12.1041 36.477 12.1055C36.6195 11.4173 36.9686 10.3091 37.7978 9.63171C38.6272 8.95421 39.7829 8.83324 40.4853 8.83096C40.3853 9.31392 40.1833 10.004 39.7841 10.6077C39.5978 10.8895 39.6752 11.269 39.957 11.4554C40.2387 11.6418 40.6183 11.5644 40.8047 11.2826C41.6882 9.94665 41.7953 8.36072 41.7994 8.29383C41.819 7.97498 41.5901 7.69463 41.2737 7.65034C41.1696 7.63566 38.7069 7.30914 37.0238 8.68413C36.5267 9.09018 36.1624 9.5924 35.8943 10.1013C35.5603 8.90869 35.081 7.7585 34.4652 6.67731C34.6241 5.98023 34.9211 4.12121 34.0285 2.59735C32.9299 0.722018 30.5077 0.169964 30.4052 0.14737C30.0931 0.0786893 29.7809 0.261647 29.6881 0.567446C29.6576 0.667938 28.9547 3.05071 30.0531 4.92604C30.954 6.46393 32.7442 7.11158 33.416 7.30743C34.6084 9.41074 35.2393 11.7987 35.2393 14.2315C35.2393 20.6013 30.9445 26.1901 24.7952 27.8223C24.4815 27.9056 24.2837 28.2317 24.3554 28.5483C24.4309 28.8821 24.7782 29.0926 25.1091 29.0049C26.6376 28.5992 28.0602 27.968 29.3461 27.1539C29.7711 27.927 30.6251 29.1524 31.9837 29.6959C32.5409 29.9188 33.1157 30 33.6582 30C35.0804 30 36.2794 29.441 36.3481 29.4083C36.6367 29.2712 36.771 28.9352 36.6567 28.6369C36.6191 28.5388 35.7128 26.2257 33.6949 25.4184C33.0991 25.1801 32.4834 25.1043 31.9084 25.116C32.9938 24.0439 33.9152 22.8143 34.639 21.4693C35.2673 21.8133 36.3196 22.2699 37.4803 22.2699C37.7396 22.2699 38.0043 22.247 38.2707 22.1951C40.404 21.7792 41.7267 19.6763 41.7819 19.587C41.95 19.3153 41.8808 18.96 41.623 18.7714ZM33.2407 26.5543C34.2358 26.9525 34.9013 27.9065 35.2431 28.52C34.5745 28.7291 33.4391 28.9602 32.4383 28.5598C31.4431 28.1616 30.7776 27.2076 30.4359 26.5941C31.1044 26.3849 32.2397 26.1538 33.2407 26.5543ZM31.109 4.30751C30.5677 3.38351 30.6266 2.22312 30.7329 1.52881C31.3908 1.77588 32.4316 2.29196 32.9727 3.2158C33.514 4.13981 33.455 5.3002 33.3488 5.9945C32.6908 5.74743 31.6501 5.23135 31.109 4.30751ZM38.0367 20.9942C36.9848 21.1992 35.9082 20.7585 35.2884 20.4284C35.7367 19.8901 36.5652 19.0804 37.6234 18.8741C38.6755 18.6692 39.752 19.1098 40.3718 19.44C39.9235 19.9781 39.0949 20.7879 38.0367 20.9942Z" fill="#556832"/>
<path d="M26.7951 20.0953C26.7951 18.6589 25.6264 17.4902 24.1899 17.4902H24.1768V9.22792C24.1768 8.89007 23.9029 8.61616 23.565 8.61616C23.2272 8.61616 22.9533 8.89007 22.9533 9.22792V18.102C22.9533 18.4398 23.2272 18.7137 23.565 18.7137H24.1899C24.9517 18.7137 25.5715 19.3335 25.5715 20.0953C25.5715 20.8571 24.9518 21.4769 24.1899 21.4769H18.5586C17.7969 21.4769 17.177 20.8572 17.177 20.0953C17.177 19.3336 17.7968 18.7137 18.5586 18.7137H19.5783C19.9162 18.7137 20.1901 18.4398 20.1901 18.102V7.41213C20.1901 7.16482 20.0411 6.94181 19.8127 6.84703C19.5843 6.75224 19.3211 6.80437 19.1462 6.97917L18.6595 7.46491C18.1203 8.00301 17.2438 8.0022 16.7056 7.46319C16.1675 6.92403 16.1684 6.04758 16.7075 5.50931L20.5956 1.62838C20.9924 1.23252 21.5833 1.11531 22.101 1.33C22.6187 1.54477 22.9533 2.04568 22.9533 2.60621V6.78087C22.9533 7.11873 23.2272 7.39264 23.565 7.39264C23.9029 7.39264 24.1768 7.11873 24.1768 6.78087V2.60621C24.1768 1.54934 23.546 0.604776 22.5697 0.199871C21.5933 -0.204789 20.4792 0.0160162 19.7313 0.762447L15.8432 4.64338C14.8266 5.65817 14.825 7.31082 15.8398 8.32757C16.6849 9.17417 17.9726 9.31675 18.9667 8.75458V17.4902H18.5588C17.1224 17.4902 15.9537 18.6588 15.9537 20.0953C15.9537 21.5317 17.1223 22.7005 18.5588 22.7005H24.1901C25.6264 22.7004 26.7951 21.5317 26.7951 20.0953Z" fill="#556832"/>
</svg>
