<svg width="35" height="30" viewBox="0 0 35 30" fill="none" xmlns="http://www.w3.org/2000/svg">
<path d="M32.1333 22.2561V8.44093L33.4832 7.93687C33.8741 7.7908 34.1333 7.41733 34.1333 7C34.1333 6.58267 33.8741 6.2092 33.4832 6.0632L17.4165 0.0632C17.1909 -0.0210667 16.9425 -0.0210667 16.7169 0.0632L0.6502 6.0632C0.2592 6.2092 0 6.58267 0 7C0 7.41733 0.2592 7.7908 0.650133 7.9368L7.308 10.4231C5.7318 14.8705 6.12947 17.21 6.06667 18C6.06667 18.3318 6.23127 18.6421 6.506 18.8281C6.7808 19.0141 7.12987 19.0517 7.438 18.9285C7.46127 18.9192 9.78567 18 12.0667 18C14.1767 18 16.4208 19.7641 16.4419 19.7809C16.8072 20.073 17.3261 20.073 17.6913 19.7809C18.3105 19.2855 20.3036 18 22.0667 18C24.3351 18 26.6728 18.9195 26.6953 18.9285C27.0033 19.0517 27.3525 19.0141 27.6273 18.8281C27.9021 18.6421 28.0667 18.3318 28.0667 18C28.0086 17.27 28.3933 14.8472 26.8253 10.4231L30.1333 9.1878V22.2561C29.6192 22.5339 29.1707 23.0322 28.8247 23.7243C28.3789 24.616 28.1333 25.7793 28.1333 27V29C28.1333 29.5523 28.5811 30 29.1333 30H33.1333C33.6856 30 34.1333 29.5523 34.1333 29V27C34.1333 25.7793 33.8878 24.616 33.442 23.7243C33.0959 23.0322 32.6475 22.5339 32.1333 22.2561ZM17.0667 2.06747L30.2749 7C28.9123 7.50887 18.3853 11.4401 17.0667 11.9325C15.748 11.4401 5.221 7.50887 3.8584 7L17.0667 2.06747ZM26.0585 16.6149C25.0329 16.3233 23.5595 16 22.0667 16C20.0211 16 18.0418 17.1211 17.0667 17.7707C16.0915 17.1211 14.1121 16 12.0667 16C10.5739 16 9.1004 16.3233 8.07487 16.6149C8.1324 14.5818 8.49347 13.0676 9.18173 11.1229L16.7169 13.9368C16.9424 14.0211 17.1909 14.0211 17.4165 13.9368L24.9517 11.1229C25.6399 13.0676 26.0009 14.5819 26.0585 16.6149ZM32.1333 28H30.1333V27C30.1333 26.0971 30.3084 25.2291 30.6135 24.6188C30.8691 24.1076 31.0987 24 31.1333 24C31.168 24 31.3975 24.1076 31.6531 24.6188C31.9583 25.2291 32.1333 26.0971 32.1333 27V28Z" fill="#556832"/>
</svg>
