<svg width="30" height="30" viewBox="0 0 30 30" fill="none" xmlns="http://www.w3.org/2000/svg">
<path d="M29.8283 5.50289L24.4963 0.171621C24.3864 0.0617578 24.2374 0 24.082 0H6.67969C5.71043 0 4.92188 0.788555 4.92188 1.75781V2.87484C2.04346 4.00395 0 6.80947 0 10.0835C0 10.407 0.262383 10.6694 0.585938 10.6694H7.73971C8.06326 10.6694 8.32564 10.407 8.32564 10.0835V2.92969C8.32564 2.60613 8.06326 2.34375 7.73971 2.34375C7.17498 2.34375 6.62443 2.4051 6.09375 2.52053V1.75781C6.09375 1.43473 6.3566 1.17188 6.67969 1.17188H23.4961V4.74609C23.4961 5.71535 24.2846 6.50391 25.2539 6.50391H28.8281V28.2422C28.8281 28.5653 28.5653 28.8281 28.2422 28.8281H6.67969C6.3566 28.8281 6.09375 28.5653 6.09375 28.2422V23.2226C6.09375 22.8991 5.83137 22.6367 5.50781 22.6367C5.18426 22.6367 4.92188 22.8991 4.92188 23.2226V28.2422C4.92188 29.2114 5.71043 30 6.67969 30H28.2422C29.2114 30 30 29.2114 30 28.2422V5.91721C30 5.76182 29.9382 5.61275 29.8283 5.50289ZM7.15371 3.54158V9.49752H1.19777C1.47791 6.34236 3.99861 3.82172 7.15371 3.54158ZM25.2539 5.33203C24.9308 5.33203 24.668 5.06918 24.668 4.74609V2.00039L28.0001 5.33203H25.2539Z" fill="#556832"/>
<path d="M5.92201 20.6795C5.81309 20.5704 5.66191 20.5078 5.50781 20.5078C5.35371 20.5078 5.20254 20.5704 5.09355 20.6795C4.98457 20.7885 4.92188 20.9396 4.92188 21.0938C4.92188 21.2479 4.98451 21.399 5.09355 21.5079C5.20254 21.617 5.35371 21.6797 5.50781 21.6797C5.66191 21.6797 5.81309 21.617 5.92201 21.5079C6.03105 21.399 6.09375 21.2479 6.09375 21.0938C6.09375 20.9396 6.03105 20.7885 5.92201 20.6795Z" fill="#556832"/>
<path d="M9.8384 4.4425C9.51485 4.4425 9.25247 4.70489 9.25247 5.02844V11.5962H2.68469C2.36114 11.5962 2.09875 11.8586 2.09875 12.1822C2.09875 16.4498 5.57073 19.9219 9.8384 19.9219C14.1061 19.9219 17.5781 16.4498 17.5781 12.1822C17.5781 7.91448 14.1061 4.4425 9.8384 4.4425ZM10.4243 5.64034C11.796 5.76209 13.0476 6.3076 14.0475 7.14444L10.4243 10.7676V5.64034ZM9.8384 18.75C6.41436 18.75 3.59383 16.1163 3.29659 12.7681H9.8384C10.0001 12.7681 10.1465 12.7026 10.2525 12.5966C10.2526 12.5966 10.2527 12.5966 10.2528 12.5965L14.8764 7.97295C15.8309 9.1136 16.4062 10.582 16.4062 12.1822C16.4062 15.8037 13.4599 18.75 9.8384 18.75Z" fill="#556832"/>
<path d="M25.6683 18.4925C24.699 18.4925 23.9105 19.281 23.9105 20.2503C23.9105 20.4932 23.96 20.7247 24.0495 20.9354L20.6738 24.3111C20.4418 24.1981 20.1814 24.1345 19.9065 24.1345C19.6381 24.1345 19.3836 24.1952 19.1559 24.3032L16.9142 22.0616C16.9919 21.8633 17.035 21.6477 17.035 21.4221C17.035 20.4529 16.2465 19.6643 15.2772 19.6643C14.308 19.6643 13.5194 20.4529 13.5194 21.4221C13.5194 21.6847 13.5777 21.9339 13.6814 22.1579L11.5313 24.308C11.3023 24.1984 11.046 24.1369 10.7756 24.1369C9.80638 24.1369 9.01782 24.9255 9.01782 25.8948C9.01782 26.864 9.80638 27.6526 10.7756 27.6526C11.7449 27.6526 12.5334 26.864 12.5334 25.8948C12.5334 25.6231 12.4715 25.3656 12.3609 25.1357L14.499 22.9976C14.7338 23.1141 14.998 23.1799 15.2773 23.1799C15.5929 23.1799 15.8889 23.096 16.1452 22.9498L18.3236 25.1283C18.2116 25.3594 18.1487 25.6187 18.1487 25.8924C18.1487 26.8616 18.9372 27.6502 19.9065 27.6502C20.8757 27.6502 21.6643 26.8616 21.6643 25.8924C21.6643 25.6253 21.6042 25.372 21.4971 25.1452L24.8414 21.8009C25.088 21.933 25.3695 22.0081 25.6683 22.0081C26.6375 22.0081 27.4261 21.2196 27.4261 20.2503C27.4261 19.281 26.6375 18.4925 25.6683 18.4925ZM10.7756 26.4808C10.4525 26.4808 10.1896 26.2179 10.1896 25.8948C10.1896 25.5717 10.4525 25.3089 10.7756 25.3089C10.9329 25.3089 11.0756 25.3715 11.1809 25.4728C11.1833 25.4752 11.1853 25.4779 11.1877 25.4803C11.1905 25.4831 11.1936 25.4854 11.1965 25.4881C11.2984 25.5936 11.3615 25.7369 11.3615 25.8948C11.3615 26.2178 11.0987 26.4808 10.7756 26.4808ZM15.2772 22.0081C14.9541 22.0081 14.6913 21.7452 14.6913 21.4221C14.6913 21.099 14.9541 20.8362 15.2772 20.8362C15.6003 20.8362 15.8632 21.099 15.8632 21.4221C15.8632 21.7452 15.6003 22.0081 15.2772 22.0081ZM19.9064 26.4783C19.5833 26.4783 19.3204 26.2154 19.3204 25.8924C19.3204 25.5693 19.5833 25.3064 19.9064 25.3064C20.2294 25.3064 20.4923 25.5693 20.4923 25.8924C20.4923 26.2154 20.2294 26.4783 19.9064 26.4783ZM25.6682 20.8362C25.3451 20.8362 25.0822 20.5733 25.0822 20.2502C25.0822 19.9272 25.3451 19.6643 25.6682 19.6643C25.9913 19.6643 26.2541 19.9272 26.2541 20.2502C26.2541 20.5733 25.9913 20.8362 25.6682 20.8362Z" fill="#556832"/>
<path d="M22.7396 13.7695H19.6471C19.3235 13.7695 19.0612 14.0319 19.0612 14.3555C19.0612 14.679 19.3235 14.9414 19.6471 14.9414H22.7396C23.0632 14.9414 23.3256 14.679 23.3256 14.3555C23.3256 14.0319 23.0632 13.7695 22.7396 13.7695Z" fill="#556832"/>
<path d="M25.8217 13.9412C25.7127 13.8322 25.5616 13.7695 25.4075 13.7695C25.2534 13.7695 25.1022 13.8322 24.9932 13.9412C24.8842 14.0502 24.8215 14.2014 24.8215 14.3555C24.8215 14.5096 24.8842 14.6607 24.9932 14.7697C25.1022 14.8787 25.2528 14.9414 25.4075 14.9414C25.5616 14.9414 25.7127 14.8787 25.8217 14.7697C25.9307 14.6607 25.9934 14.5096 25.9934 14.3555C25.9934 14.2014 25.9307 14.0502 25.8217 13.9412Z" fill="#556832"/>
<path d="M26.8046 8.14453H19.6471C19.3235 8.14453 19.0612 8.40691 19.0612 8.73047C19.0612 9.05402 19.3235 9.31641 19.6471 9.31641H26.8046C27.1281 9.31641 27.3905 9.05402 27.3905 8.73047C27.3905 8.40691 27.1281 8.14453 26.8046 8.14453Z" fill="#556832"/>
<path d="M26.8046 10.957H19.6471C19.3235 10.957 19.0612 11.2194 19.0612 11.543C19.0612 11.8665 19.3235 12.1289 19.6471 12.1289H26.8046C27.1281 12.1289 27.3905 11.8665 27.3905 11.543C27.3905 11.2194 27.1281 10.957 26.8046 10.957Z" fill="#556832"/>
</svg>
