<svg width="23" height="30" viewBox="0 0 23 30" fill="none" xmlns="http://www.w3.org/2000/svg">
<path d="M21.4257 2.43131H17.7041V0.984686C17.7041 0.440824 17.2632 0 16.7194 0C16.1756 0 15.7347 0.440824 15.7347 0.984686V2.43131H12.1899V0.984686C12.1899 0.440824 11.749 0 11.2052 0C10.6614 0 10.2205 0.440824 10.2205 0.984686V2.43131H6.67562V0.984686C6.67562 0.440824 6.23472 0 5.69093 0C5.14715 0 4.70625 0.440824 4.70625 0.984686V2.43131H0.984686C0.440903 2.43131 0 2.87221 0 3.41599V29.0153C0 29.5591 0.440903 30 0.984686 30H21.4257C21.9694 30 22.4104 29.5591 22.4104 29.0153V3.41599C22.4104 2.87221 21.9694 2.43131 21.4257 2.43131ZM20.441 28.0306H1.96937V4.40068H4.70625V5.55001C4.70625 6.09387 5.14715 6.53469 5.69093 6.53469C6.23472 6.53469 6.67562 6.09387 6.67562 5.55001V4.40068H10.2205V5.55001C10.2205 6.09387 10.6614 6.53469 11.2052 6.53469C11.749 6.53469 12.1899 6.09387 12.1899 5.55001V4.40068H15.7347V5.55001C15.7347 6.09387 16.1756 6.53469 16.7194 6.53469C17.2632 6.53469 17.7041 6.09387 17.7041 5.55001V4.40068H20.441V28.0306Z" fill="#556832"/>
<path d="M17.0345 11.0094H5.3758C4.83202 11.0094 4.39111 11.4503 4.39111 11.9941C4.39111 12.5379 4.83202 12.9788 5.3758 12.9788H17.0345C17.5783 12.9788 18.0192 12.5379 18.0192 11.9941C18.0192 11.4503 17.5783 11.0094 17.0345 11.0094Z" fill="#556832"/>
<path d="M17.0345 16.5237H5.3758C4.83202 16.5237 4.39111 16.9646 4.39111 17.5083C4.39111 18.0521 4.83202 18.493 5.3758 18.493H17.0345C17.5783 18.493 18.0192 18.0521 18.0192 17.5083C18.0192 16.9646 17.5783 16.5237 17.0345 16.5237Z" fill="#556832"/>
<path d="M17.0345 22.0379H5.3758C4.83202 22.0379 4.39111 22.4789 4.39111 23.0226C4.39111 23.5664 4.83202 24.0073 5.3758 24.0073H17.0345C17.5783 24.0073 18.0192 23.5664 18.0192 23.0226C18.0192 22.4788 17.5783 22.0379 17.0345 22.0379Z" fill="#556832"/>
</svg>
