<svg width="30" height="30" viewBox="0 0 30 30" fill="none" xmlns="http://www.w3.org/2000/svg">
<path d="M8.31941 6.87727L8.31944 6.87726C9.57311 6.67846 10.4285 5.50167 10.2296 4.24752C10.1035 3.4526 9.58278 2.81697 8.89405 2.50932L7.85538 2.04534L8.13928 1.78315L6.8103 2.26325L7.0778 1.49177C6.79888 1.83224 6.59057 2.21062 6.48175 2.4791L8.31941 6.87727ZM8.31941 6.87727C7.06617 7.07604 5.88874 6.22173 5.68989 4.96729L5.68987 4.9672C5.5785 4.2652 5.79787 3.58673 6.23579 3.08907L6.37515 2.93071M8.31941 6.87727L6.37515 2.93071M6.37515 2.93071L6.41152 2.72291M6.37515 2.93071L6.41152 2.72291M6.41152 2.72291C6.4256 2.64243 6.44882 2.56036 6.48172 2.47916L6.41152 2.72291Z" stroke="#556832" stroke-width="1.5"/>
<path d="M28.3226 7.6294L28.3227 7.62934C28.439 7.5041 28.635 7.49684 28.7603 7.61328C28.8856 7.72983 28.8927 7.92573 28.7765 8.05089L24.661 12.4806L24.4727 12.6833L24.4621 12.9373C24.4613 12.9419 24.4586 12.9643 24.4514 13.0153C24.4416 13.0845 24.4272 13.1825 24.4086 13.3064C24.3715 13.5538 24.3186 13.8981 24.255 14.3086C24.1277 15.1292 23.958 16.2105 23.7859 17.3018C23.487 19.1972 23.1815 21.1206 23.0805 21.7569C23.0652 21.8533 23.0545 21.9201 23.0493 21.9528L23.0393 22.0159L23.0401 22.0798L23.0987 26.7146C23.0987 26.7146 23.0987 26.7146 23.0987 26.7146C23.1027 27.0321 22.8487 27.2925 22.5315 27.2965L22.529 27.2965L22.5238 27.2965H22.5236C22.21 27.2966 21.9536 27.0443 21.9496 26.7293C21.9496 26.7293 21.9496 26.7293 21.9496 26.7293L21.8895 21.9817L21.8894 21.9809C21.889 21.9496 21.8913 21.9171 21.8965 21.8838C21.8966 21.8837 21.8966 21.8837 21.8966 21.8836L22.2414 19.709L22.3552 18.9911L21.6413 18.8548L20.3288 18.6042L19.8888 18.5202L19.6062 18.8677L18.1291 20.6843L18.0612 20.7677C18.0076 20.3108 17.8621 19.8699 17.6342 19.4714L18.6724 18.1947L18.8011 18.0364L18.8319 17.8348C19.0423 16.4576 19.1997 15.4242 19.3182 14.6465C19.4542 13.7545 19.5388 13.1988 19.5933 12.8464C19.645 12.5125 19.6677 12.3732 19.6804 12.3048C19.6837 12.287 19.6846 12.2815 19.6859 12.2762C19.6878 12.2687 19.6904 12.2614 19.7017 12.2198L19.7737 11.9556L19.6585 11.7072L17.1054 6.20029L16.4249 6.51576L17.1054 6.20029C17.0335 6.0452 17.101 5.86103 17.2561 5.78914L17.2561 5.78912C17.4111 5.71726 17.5953 5.78461 17.6673 5.93986C17.6673 5.93987 17.6673 5.93989 17.6673 5.93991L19.8708 10.6924L20.1492 11.2929L20.7796 11.0913C21.0218 11.0139 21.2798 10.9928 21.5335 11.033L23.0844 11.2789C23.0845 11.2789 23.0846 11.2789 23.0846 11.2789C23.3335 11.3185 23.5693 11.417 23.7759 11.5641L24.3122 11.946L24.7604 11.4637L28.3226 7.6294ZM16.7377 19.4859L16.7482 19.4774L16.7377 19.4859Z" stroke="#556832" stroke-width="1.5"/>
<path d="M22.6976 8.65939L22.6976 8.6594C23.6735 8.81421 24.5903 8.14899 24.7453 7.17233L22.6976 8.65939ZM22.6976 8.65939C21.7215 8.50463 21.0555 7.58843 21.2103 6.61169L21.2104 6.61162C21.3084 5.99307 21.7135 5.49811 22.2502 5.25846L23.2338 4.81933L24.0753 5.12362M22.6976 8.65939L24.0753 5.12362M24.0753 5.12362C24.0815 5.13812 24.0875 5.15226 24.093 5.16603L24.0931 5.16609C24.1172 5.22556 24.1341 5.28547 24.1443 5.34355L24.1806 5.55136L24.32 5.70974C24.6613 6.09755 24.8319 6.62566 24.7453 7.17226L24.0753 5.12362Z" stroke="#556832" stroke-width="1.5"/>
<path d="M13.1164 17.9218L13.0852 17.7214L12.1535 11.7349L12.037 10.9865L12.0225 10.893L12.0207 10.8813L12.0204 10.8798L12.0204 10.8797L12.0204 10.8796L12.0204 10.8796L12.0204 10.8796C12.1081 10.7378 12.207 10.6313 12.3075 10.5538L12.081 10.4488L15.145 3.84029L15.145 3.84022C15.2663 3.57874 15.1527 3.26855 14.891 3.14726L14.8909 3.1472C14.6295 3.02597 14.3192 3.1396 14.198 3.40113L14.198 3.40122L11.5531 9.106L11.2747 9.70659L10.6442 9.50488C10.3316 9.40487 9.99825 9.3776 9.66988 9.42968L9.66984 9.42969L7.80818 9.72484C7.48336 9.77641 7.17798 9.90318 6.91368 10.0915L6.37727 10.4738L5.92895 9.99123L1.65447 5.39024C1.65444 5.39021 1.65441 5.39018 1.65438 5.39015C1.45809 5.17904 1.12809 5.16684 0.916711 5.36289L13.1164 17.9218ZM13.1164 17.9218L13.2443 18.0792L15.323 20.6358L15.9014 20.1656L15.3231 20.6359C15.4448 20.7856 15.5112 20.9728 15.5112 21.1658V26.2817C15.5112 26.7455 15.1352 27.1216 14.6713 27.1216C14.2075 27.1216 13.8314 26.7455 13.8314 26.2817V21.7306V21.4642L13.6634 21.2574L11.8904 19.077L11.6078 18.7294L11.1678 18.8134L9.59217 19.1144L8.87829 19.2507L8.99212 19.9685L9.4061 22.5791M13.1164 17.9218L9.73286 19.851M10.0943 28.4302L10.1664 22.7315C10.1676 22.6413 10.161 22.5513 10.147 22.4623M10.0943 28.4302L9.34437 28.4207M10.0943 28.4302L9.34437 28.4207V28.4207M10.0943 28.4302C10.0832 29.3014 9.37347 30 8.50483 30L8.48434 29.9999C7.60628 29.9887 6.90357 29.2679 6.91463 28.3899M9.34437 28.4207L9.41647 22.722L9.41648 22.7212C9.41712 22.6748 9.41371 22.6273 9.4061 22.5791M9.34437 28.4207C9.33853 28.8808 8.96353 29.25 8.50483 29.25L8.49751 29.25L8.49577 29.25L8.49388 29.25C8.03002 29.2441 7.65875 28.8633 7.66457 28.3994L6.91463 28.3899M9.4061 22.5791L9.40621 22.5798L10.147 22.4623M9.4061 22.5791L10.147 22.4623M10.147 22.4623L9.73286 19.851M9.73286 19.851L11.3085 19.5501L9.73286 19.851ZM6.91463 28.3899L7.66457 28.3994L7.73504 22.8362L7.73585 22.7723L7.72584 22.7092C7.2427 19.6626 6.81659 16.9388 6.51127 14.9766C6.3586 13.9956 6.23614 13.205 6.15185 12.6597L6.05505 12.0326L6.02998 11.8699L6.02361 11.8285L6.02201 11.818L6.02161 11.8154L6.02151 11.8148L6.02149 11.8146L5.28019 11.9285M6.91463 28.3899L6.9851 22.8267C6.01854 16.7316 5.28019 11.9285 5.28019 11.9285M5.28019 11.9285L6.02148 11.8146L5.98647 11.5868L5.82965 11.4181L0.889574 6.10076M5.28019 11.9285L0.889574 6.10076M0.889574 6.10076C0.889565 6.10075 0.889555 6.10074 0.889546 6.10073C0.693443 5.8896 0.705488 5.55942 0.916484 5.3631L0.889574 6.10076Z" stroke="#556832" stroke-width="1.5"/>
</svg>
