<svg width="30" height="30" viewBox="0 0 30 30" fill="none" xmlns="http://www.w3.org/2000/svg">
<path d="M28.2427 16.0304V13.2425C28.2427 12.7571 27.8492 12.3635 27.3638 12.3635C25.548 12.3635 23.8552 12.5168 22.2559 12.8297C21.3236 11.9293 20.187 11.2761 18.9562 10.9191C20.2983 9.78958 21.1527 8.09835 21.1527 6.21106C21.1527 2.78625 18.3927 0 15.0002 0C11.6078 0 8.84778 2.78625 8.84778 6.21106C8.84778 8.09835 9.70221 9.78958 11.0443 10.9191C9.81354 11.2761 8.67698 11.9293 7.74467 12.8296C6.14532 12.5168 4.45251 12.3635 2.63677 12.3635C2.15137 12.3635 1.75785 12.757 1.75785 13.2424V16.0303C0.734839 16.3932 0 17.3701 0 18.5159V20.2738C0 21.4196 0.734839 22.3966 1.75785 22.7594V25.5473C1.75785 26.0327 2.15137 26.4263 2.63677 26.4263C7.23232 26.4263 11.006 27.5151 14.5128 29.853C14.8067 30.0488 15.1937 30.0492 15.4879 29.853C18.9947 27.5151 22.7683 26.4263 27.3639 26.4263C27.8493 26.4263 28.2428 26.0327 28.2428 25.5473V22.7594C29.2658 22.3966 30.0007 21.4196 30.0007 20.2738V18.5159C30.0006 17.3702 29.2657 16.3932 28.2427 16.0304ZM10.6056 6.21106C10.6056 3.75553 12.5771 1.75785 15.0002 1.75785C17.4234 1.75785 19.3949 3.75553 19.3949 6.21106C19.3949 8.63426 17.4234 10.6057 15.0002 10.6057C12.5771 10.6057 10.6056 8.63426 10.6056 6.21106ZM2.63671 21.1528C2.15208 21.1528 1.75779 20.7585 1.75779 20.2739V18.516C1.75779 18.0314 2.15208 17.6371 2.63671 17.6371C3.12135 17.6371 3.51564 18.0314 3.51564 18.516V20.2739C3.51564 20.7585 3.12135 21.1528 2.63671 21.1528ZM14.1213 27.5446C10.9307 25.7199 7.50678 24.7977 3.51564 24.6811V22.7595C4.53865 22.3966 5.27349 21.4197 5.27349 20.2739V18.516C5.27349 17.3702 4.53865 16.3932 3.51564 16.0304V14.1338C7.64547 14.2523 10.965 15.2248 14.1213 17.2344V27.5446ZM15.0002 15.7116C13.378 14.688 11.6894 13.9086 9.88679 13.3609C10.8773 12.7172 12.0433 12.3635 13.2424 12.3635H16.7581C17.9572 12.3635 19.1232 12.7172 20.1137 13.3609C18.3111 13.9086 16.6224 14.688 15.0002 15.7116ZM26.4849 24.6811C22.4938 24.7977 19.0698 25.7201 15.8792 27.5447V17.2351C19.0355 15.2254 22.3549 14.2523 26.4849 14.1338V16.0304C25.4619 16.3932 24.727 17.3702 24.727 18.516V20.2739C24.727 21.4197 25.4619 22.3966 26.4849 22.7595V24.6811ZM28.2427 20.2739C28.2427 20.7585 27.8484 21.1528 27.3638 21.1528C26.8791 21.1528 26.4849 20.7585 26.4849 20.2739V18.516C26.4849 18.0314 26.8791 17.6371 27.3638 17.6371C27.8484 17.6371 28.2427 18.0314 28.2427 18.516V20.2739Z" fill="#556832"/>
</svg>
