<svg width="26" height="30" viewBox="0 0 26 30" fill="none" xmlns="http://www.w3.org/2000/svg">
<path d="M24.59 4.85777L13.1056 0.0895826C12.8179 -0.0298316 12.4945 -0.0298902 12.2069 0.0895826L0.72252 4.85777C0.285117 5.03941 0 5.46644 0 5.94006V11.7364C0 19.7177 4.82397 26.897 12.2134 29.9131C12.4972 30.029 12.8152 30.029 13.0991 29.9131C20.4884 26.8971 25.3125 19.7177 25.3125 11.7364V5.94006C25.3125 5.46644 25.0275 5.03941 24.59 4.85777ZM22.9688 11.7364C22.9688 18.5213 18.9844 24.7672 12.6563 27.5552C6.49723 24.8417 2.34375 18.7052 2.34375 11.7364V6.7224L12.6563 2.44072L22.9688 6.7224V11.7364ZM11.361 15.6865L16.3979 10.6496C16.8556 10.192 17.5975 10.1919 18.0552 10.6496C18.5129 11.1073 18.5128 11.8492 18.0551 12.3069L12.1896 18.1724C11.7319 18.6301 10.9899 18.6299 10.5324 18.1724L7.25731 14.8973C6.79963 14.4397 6.79963 13.6977 7.25731 13.2401C7.71499 12.7825 8.45696 12.7824 8.91458 13.2401L11.361 15.6865Z" fill="#556832"/>
</svg>
