<svg width="30" height="30" viewBox="0 0 30 30" fill="none" xmlns="http://www.w3.org/2000/svg">
<path d="M7.91016 0C5.95559 0 4.39453 1.64098 4.39453 3.57422C4.39453 5.51273 5.97164 7.08984 7.91016 7.08984C9.84867 7.08984 11.4258 5.51273 11.4258 3.57422C11.4258 1.63945 9.86273 0 7.91016 0ZM7.91016 5.33203C6.9409 5.33203 6.15234 4.54348 6.15234 3.57422C6.15234 2.58961 6.9573 1.75781 7.91016 1.75781C8.86301 1.75781 9.66797 2.58961 9.66797 3.57422C9.66797 4.54348 8.87941 5.33203 7.91016 5.33203Z" fill="#556832"/>
<path d="M27.3633 0H14.9414C13.4875 0 12.3047 1.18283 12.3047 2.63672V8.63467L11.5322 7.86229C11.0342 7.36418 10.3721 7.08984 9.66797 7.08984H7.91016C7.53756 7.08984 4.76713 7.08984 4.39453 7.08984C1.97139 7.08984 0 9.06123 0 11.4844C0 11.9841 0 16.0359 0 16.7578C0 18.2117 1.18283 19.3945 2.63672 19.3945C2.94475 19.3945 3.24064 19.3414 3.51562 19.2439V27.3633C3.51562 28.8172 4.69846 30 6.15234 30C6.82705 30 7.44334 29.7453 7.91016 29.327C8.37697 29.7453 8.99326 30 9.66797 30C11.1219 30 12.3047 28.8172 12.3047 27.3633V15.7291C12.9767 15.9662 13.7211 15.9205 14.3629 15.6008L17.3221 14.1211H27.3633C28.8172 14.1211 30 12.9383 30 11.4844V2.63672C30 1.18283 28.8172 0 27.3633 0ZM17.0923 12.2706L13.5778 14.0279C13.248 14.1922 12.8385 14.1398 12.5621 13.8635L12.0473 13.3487C11.5038 12.8051 10.5493 13.1748 10.5469 13.9674C10.5469 13.9683 10.5468 13.9691 10.5468 13.97V27.3633C10.5468 27.8479 10.1525 28.2422 9.66791 28.2422C9.18328 28.2422 8.789 27.8479 8.789 27.3633V18.5156C8.789 18.0302 8.39549 17.6367 7.9101 17.6367C7.42471 17.6367 7.03119 18.0302 7.03119 18.5156V27.3633C7.03119 27.8479 6.63691 28.2422 6.15229 28.2422C5.66766 28.2422 5.27338 27.8479 5.27338 27.3633V16.7578C5.27338 16.0951 5.27338 12.026 5.27338 11.4844C5.27338 10.999 4.87986 10.6055 4.39447 10.6055C3.90908 10.6055 3.51557 10.999 3.51557 11.4844C3.51557 11.9841 3.51557 16.0359 3.51557 16.7578C3.51557 17.2424 3.12129 17.6367 2.63666 17.6367C2.15203 17.6367 1.75775 17.2424 1.75775 16.7578C1.75781 16.0951 1.75781 12.026 1.75781 11.4844C1.75781 10.0305 2.94064 8.84766 4.39453 8.84766C5.05723 8.84766 9.12633 8.84766 9.66797 8.84766C9.90258 8.84766 10.1232 8.93912 10.2893 9.10523L12.9088 11.7248C13.1763 11.9923 13.585 12.0585 13.9233 11.8894L16.3063 10.6979C16.7425 10.4797 17.2681 10.6561 17.4854 11.0912C17.7028 11.526 17.5271 12.0533 17.0923 12.2706ZM28.2422 11.4844C28.2422 11.969 27.8479 12.3633 27.3633 12.3633H19.1847C19.19 12.3482 19.1959 12.3335 19.2009 12.3183C19.3275 11.9386 19.3655 11.5438 19.3171 11.1581L24.1235 8.7549C24.5577 8.53781 24.7337 8.00988 24.5166 7.5757C24.2995 7.14152 23.7715 6.96551 23.3374 7.18266L18.5312 9.58576C17.7612 8.84092 16.5617 8.60449 15.5199 9.12586L14.0625 9.85459V2.63672C14.0625 2.15209 14.4568 1.75781 14.9414 1.75781H27.3633C27.8479 1.75781 28.2422 2.15209 28.2422 2.63672V11.4844Z" fill="#556832"/>
</svg>
