<svg width="68" height="68" viewBox="0 0 68 68" fill="none" xmlns="http://www.w3.org/2000/svg">
<circle cx="34" cy="34" r="34" fill="#88C716"/>
<path d="M41.2423 28H24.758C24.4874 28 24.2341 28.0665 24.0049 28.1762L32.9611 37.1324L34.9685 35.2032C34.9685 35.2032 34.9686 35.203 34.9687 35.2029C34.9687 35.2029 34.9689 35.2028 34.9689 35.2028L41.9957 28.1763C41.7665 28.0666 41.513 28 41.2423 28Z" fill="white"/>
<path d="M42.8245 29.005L36.2119 35.6173L42.8243 42.2296C42.9339 42.0005 43.0005 41.7471 43.0005 41.4766V29.7578C43.0005 29.4874 42.9341 29.2341 42.8245 29.005Z" fill="white"/>
<path d="M23.1762 29.0047C23.0665 29.2339 23 29.4872 23 29.7578V41.4766C23 41.747 23.0664 42.0004 23.176 42.2295L29.7886 35.6172L23.1762 29.0047Z" fill="white"/>
<path d="M35.3833 36.4458L33.3757 38.3752C33.2612 38.4897 33.1113 38.5469 32.9614 38.5469C32.8115 38.5469 32.6616 38.4897 32.5471 38.3752L30.6176 36.4457L24.0049 43.058C24.2341 43.1678 24.4876 43.2344 24.7582 43.2344H41.2426C41.5132 43.2344 41.7665 43.1678 41.9957 43.0582L35.3833 36.4458Z" fill="white"/>
</svg>
