<svg width="68" height="68" viewBox="0 0 68 68" fill="none" xmlns="http://www.w3.org/2000/svg">
<circle cx="34" cy="34" r="34" fill="#88C716"/>
<path d="M41.5618 38.5436L39.449 36.4303C38.8853 35.8666 37.9004 35.8657 37.3357 36.4303L36.9834 36.7827L41.2096 41.0087L41.5618 40.6565C42.1468 40.0714 42.1449 39.1257 41.5618 38.5436Z" fill="white"/>
<path d="M36.2597 37.4674C35.8151 37.8118 35.1809 37.798 34.7746 37.3909L30.5971 33.2105C30.1899 32.8033 30.1762 32.1686 30.5206 31.7251L26.3041 27.5089C24.4902 29.6232 24.5611 32.8092 26.5631 34.8112L33.174 41.4249C35.0951 43.346 38.2419 43.6008 40.4764 41.6838L36.2597 37.4674Z" fill="white"/>
<path d="M31.5579 28.5364L29.4451 26.4232C28.8814 25.8594 27.8965 25.8585 27.3318 26.4232L26.9795 26.7755L31.2057 31.0015L31.5579 30.6492C32.1429 30.0643 32.1409 29.1185 31.5579 28.5364Z" fill="white"/>
</svg>
