<svg width="68" height="68" viewBox="0 0 68 68" fill="none" xmlns="http://www.w3.org/2000/svg">
<circle cx="34" cy="34" r="34" fill="#88C716"/>
<path d="M33.3629 24C29.3032 24 26 27.3032 26 31.3633C26 32.4223 26.2168 33.4334 26.6439 34.3688C28.4849 38.3972 32.0144 42.6503 33.0526 43.8577C33.1303 43.948 33.2437 44 33.3631 44C33.4824 44 33.5958 43.948 33.6736 43.8577C34.7113 42.6505 38.2409 38.3976 40.0824 34.3688C40.5098 33.4334 40.7263 32.4223 40.7263 31.3633C40.7259 27.3032 37.4228 24 33.3629 24ZM33.3629 35.1878C31.254 35.1878 29.5382 33.4719 29.5382 31.3631C29.5382 29.254 31.254 27.5382 33.3629 27.5382C35.4717 27.5382 37.1876 29.254 37.1876 31.3631C37.1878 33.4719 35.4719 35.1878 33.3629 35.1878Z" fill="white"/>
</svg>
